# xmcd
#
# Track frame offsets: 
#        150
#        7279
#        30931
#        70895
#        80974
#        98384
#        141461
#        161539
#        202895
#        211797
#        231758
#        246504
#        271454
#        282312
#        314845
#
# Disc length: 4381 seconds
#
# Revision: 0
# Processed by: cddbd v1.5.1PL2 Copyright (c) Steve Scherf et al.
# Submitted via: ExactAudioCopy v0.95b2
#
DISCID=dc111b0f
DTITLE=Jimi Hendrix - Seattle 1970
DYEAR=1970
DGENRE=Classic Rock
TTITLE0=Intro
TTITLE1=Fire
TTITLE2=Message To Love
TTITLE3=Lover Man
TTITLE4=Freedom
TTITLE5=Red House
TTITLE6=Foxy Lady
TTITLE7=Machine Gun
TTITLE8=Star Spangled Banner
TTITLE9=Purple Haze
TTITLE10=Drums Solo
TTITLE11=Getting My Heart Back Together Again
TTITLE12=Midnight Lightning
TTITLE13=Voodoo Child (Slight Return)
TTITLE14=Hey Baby (The Land Of The New Rising Sun)
EXTD=
EXTT0=
EXTT1=
EXTT2=
EXTT3=
EXTT4=
EXTT5=
EXTT6=
EXTT7=
EXTT8=
EXTT9=
EXTT10=
EXTT11=
EXTT12=
EXTT13=
EXTT14=
PLAYORDER=
